<svg width="24" height="24" viewBox="0 0 24 24" fill="none" xmlns="http://www.w3.org/2000/svg">
<path d="M19 8.00004H17V11H14V13H17V16H19V13H22V11H19V8.00004ZM3.99997 8.00004C3.99997 10.28 5.71997 12 7.99997 12C10.28 12 12 10.28 12 8.00004C12 5.72004 10.28 4.00004 7.99997 4.00004C5.71997 4.00004 3.99997 5.72004 3.99997 8.00004ZM9.99997 8.00004C9.99997 9.17804 9.17797 10 7.99997 10C6.82197 10 5.99997 9.17804 5.99997 8.00004C5.99997 6.82204 6.82197 6.00004 7.99997 6.00004C9.17797 6.00004 9.99997 6.82204 9.99997 8.00004ZM3.99997 18C3.99997 16.346 5.34597 15 6.99997 15H8.99997C10.654 15 12 16.346 12 18V19H14V18C14 15.243 11.757 13 8.99997 13H6.99997C4.24297 13 1.99997 15.243 1.99997 18V19H3.99997V18Z" fill="#2F80ED"/>
</svg>
