<svg width="16" height="16" viewBox="0 0 16 16" fill="none" xmlns="http://www.w3.org/2000/svg">
<path d="M4.99933 7.33334C5.55161 7.33334 5.99933 6.88563 5.99933 6.33334C5.99933 5.78106 5.55161 5.33334 4.99933 5.33334C4.44704 5.33334 3.99933 5.78106 3.99933 6.33334C3.99933 6.88563 4.44704 7.33334 4.99933 7.33334Z" fill="#4F5E7B"/>
<path d="M6.99933 9.33332L5.99933 7.99999L3.99933 10.6667H11.9993L8.99933 6.66666L6.99933 9.33332Z" fill="#4F5E7B"/>
<path d="M13.3327 2.66666H2.66599C1.93066 2.66666 1.33266 3.26466 1.33266 3.99999V12C1.33266 12.7353 1.93066 13.3333 2.66599 13.3333H13.3327C14.068 13.3333 14.666 12.7353 14.666 12V3.99999C14.666 3.26466 14.068 2.66666 13.3327 2.66666ZM2.66599 12V3.99999H13.3327L13.334 12H2.66599Z" fill="#4F5E7B"/>
</svg>
