<svg width="24" height="24" viewBox="0 0 24 24" fill="none" xmlns="http://www.w3.org/2000/svg">
<g opacity="0.5">
<path d="M16.5 6.00001V17.5C16.5 19.71 14.71 21.5 12.5 21.5C10.29 21.5 8.50001 19.71 8.50001 17.5V5.00001C8.50001 4.33697 8.7634 3.70108 9.23224 3.23224C9.70108 2.7634 10.337 2.50001 11 2.50001C11.663 2.50001 12.2989 2.7634 12.7678 3.23224C13.2366 3.70108 13.5 4.33697 13.5 5.00001V15.5C13.5 16.05 13.05 16.5 12.5 16.5C11.95 16.5 11.5 16.05 11.5 15.5V6.00001H10V15.5C10 16.163 10.2634 16.7989 10.7322 17.2678C11.2011 17.7366 11.837 18 12.5 18C13.163 18 13.7989 17.7366 14.2678 17.2678C14.7366 16.7989 15 16.163 15 15.5V5.00001C15 2.79001 13.21 1.00001 11 1.00001C8.79001 1.00001 7.00001 2.79001 7.00001 5.00001V17.5C7.00001 20.54 9.46001 23 12.5 23C15.54 23 18 20.54 18 17.5V6.00001H16.5Z" fill="#1B1A57"/>
</g>
</svg>
