<svg width="24" height="24" viewBox="0 0 24 24" fill="none" xmlns="http://www.w3.org/2000/svg">
<path d="M19 13.586V9.99997C19 6.78297 16.815 4.07297 13.855 3.25797C13.562 2.51997 12.846 1.99997 12 1.99997C11.154 1.99997 10.438 2.51997 10.145 3.25797C7.185 4.07397 5 6.78297 5 9.99997V13.586L3.293 15.293C3.19996 15.3857 3.12617 15.4959 3.07589 15.6172C3.0256 15.7385 2.99981 15.8686 3 16V18C3 18.2652 3.10536 18.5195 3.29289 18.7071C3.48043 18.8946 3.73478 19 4 19H20C20.2652 19 20.5196 18.8946 20.7071 18.7071C20.8946 18.5195 21 18.2652 21 18V16C21.0002 15.8686 20.9744 15.7385 20.9241 15.6172C20.8738 15.4959 20.8 15.3857 20.707 15.293L19 13.586ZM19 17H5V16.414L6.707 14.707C6.80004 14.6143 6.87383 14.5041 6.92412 14.3827C6.9744 14.2614 7.00019 14.1313 7 14V9.99997C7 7.24297 9.243 4.99997 12 4.99997C14.757 4.99997 17 7.24297 17 9.99997V14C17 14.266 17.105 14.52 17.293 14.707L19 16.414V17ZM12 22C12.6193 22.0007 13.2235 21.8086 13.7285 21.4501C14.2335 21.0917 14.6143 20.5848 14.818 20H9.182C9.38566 20.5848 9.76648 21.0917 10.2715 21.4501C10.7765 21.8086 11.3807 22.0007 12 22Z" fill="#4F5E7B"/>
</svg>
