<svg width="24" height="24" viewBox="0 0 24 24" fill="none" xmlns="http://www.w3.org/2000/svg">
<path d="M9.5 12C11.706 12 13.5 10.206 13.5 8C13.5 5.794 11.706 4 9.5 4C7.294 4 5.5 5.794 5.5 8C5.5 10.206 7.294 12 9.5 12ZM11 13H8C4.691 13 2 15.691 2 19V20H17V19C17 15.691 14.309 13 11 13Z" fill="#2F80ED"/>
<path d="M16.604 11.048C17.213 10.0101 17.4761 8.80531 17.355 7.608C17.176 5.824 16.18 4.247 14.552 3.168L13.447 4.834C14.566 5.576 15.247 6.633 15.365 7.808C15.4194 8.3541 15.3514 8.90546 15.166 9.42198C14.9806 9.9385 14.6823 10.4072 14.293 10.794L13.101 11.986L14.719 12.461C18.951 13.701 19 17.957 19 18H21C21 16.211 20.044 12.715 16.604 11.048Z" fill="#2F80ED"/>
</svg>
