<svg width="16" height="16" viewBox="0 0 16 16" fill="none" xmlns="http://www.w3.org/2000/svg">
<path d="M4.34402 9.54965L3.35068 13.851C3.31992 13.9812 3.32916 14.1177 3.37718 14.2426C3.4252 14.3676 3.50978 14.4751 3.61986 14.5512C3.72995 14.6273 3.86042 14.6684 3.99425 14.6692C4.12808 14.67 4.25903 14.6304 4.37002 14.5557L8.00002 12.1357L11.63 14.5557C11.7436 14.6311 11.8775 14.6699 12.0138 14.6669C12.15 14.6639 12.2821 14.6192 12.3923 14.5389C12.5024 14.4586 12.5853 14.3465 12.6299 14.2177C12.6744 14.0889 12.6784 13.9495 12.6413 13.8183L11.422 9.55165L14.446 6.83032C14.5429 6.74311 14.612 6.62943 14.645 6.50333C14.6779 6.37723 14.6731 6.24424 14.6313 6.12082C14.5894 5.99739 14.5123 5.88894 14.4095 5.80887C14.3067 5.72881 14.1826 5.68064 14.0527 5.67032L10.252 5.36766L8.60735 1.72699C8.55491 1.60976 8.46966 1.51021 8.36189 1.44036C8.25412 1.37051 8.12844 1.33334 8.00002 1.33334C7.87159 1.33334 7.74591 1.37051 7.63814 1.44036C7.53038 1.51021 7.44513 1.60976 7.39268 1.72699L5.74802 5.36766L1.94735 5.66966C1.81965 5.67977 1.69757 5.72646 1.59572 5.80414C1.49386 5.88182 1.41654 5.9872 1.37301 6.10767C1.32948 6.22815 1.32157 6.35861 1.35025 6.48346C1.37892 6.6083 1.44295 6.72225 1.53468 6.81165L4.34402 9.54965ZM6.24602 6.66566C6.36501 6.65628 6.4793 6.61507 6.57688 6.54633C6.67447 6.4776 6.75178 6.38387 6.80068 6.27499L8.00002 3.62099L9.19935 6.27499C9.24826 6.38387 9.32556 6.4776 9.42315 6.54633C9.52074 6.61507 9.63502 6.65628 9.75402 6.66566L12.402 6.87565L10.2213 8.83832C10.032 9.00899 9.95668 9.27166 10.026 9.51699L10.8614 12.4403L8.37068 10.7797C8.26136 10.7063 8.13268 10.6671 8.00102 10.6671C7.86935 10.6671 7.74067 10.7063 7.63135 10.7797L5.02868 12.515L5.72868 9.48432C5.75435 9.37286 5.7509 9.25666 5.71868 9.14691C5.68646 9.03716 5.62654 8.93755 5.54468 8.85765L3.51935 6.88299L6.24602 6.66566Z" fill="#2F80ED"/>
</svg>
