<svg width="24" height="24" viewBox="0 0 24 24" fill="none" xmlns="http://www.w3.org/2000/svg">
<path d="M12 16C14.206 16 16 14.206 16 12V6C16 3.783 14.215 1.979 12.021 1.979C11.9506 1.97942 11.8805 1.98781 11.812 2.004C10.7852 2.05378 9.81692 2.49635 9.10737 3.24015C8.39782 3.98395 8.00135 4.97204 7.99999 6V12C7.99999 14.206 9.79399 16 12 16Z" fill="white"/>
<path d="M11 19.931V22H13V19.931C16.939 19.436 20 16.073 20 12H18C18 15.309 15.309 18 12 18C8.69101 18 6.00001 15.309 6.00001 12H4.00001C4.00001 16.072 7.06101 19.436 11 19.931Z" fill="white"/>
</svg>
